<?xml version="1.0" encoding="UTF-8" standalone="no"?>
<!-- Generator: Adobe Illustrator 27.5.0, SVG Export Plug-In . SVG Version: 6.00 Build 0)  -->

<svg
   version="1.1"
   x="0px"
   y="0px"
   viewBox="0 0 600 400"
   xml:space="preserve"
   id="svg378"
   width="600"
   height="400"
   xmlns="http://www.w3.org/2000/svg"
   xmlns:svg="http://www.w3.org/2000/svg"
   xmlns:rdf="http://www.w3.org/1999/02/22-rdf-syntax-ns#"
   xmlns:cc="http://creativecommons.org/ns#"><defs
   id="defs382" />
<g
   id="BACKGROUND">
</g>
<g
   id="OBJECTS"
   transform="translate(50.0005,-54.813166)">
	<g
   id="g347">
		<path
   style="fill:#d3d3d3"
   d="M 429.116,407.958 H 70.884 c -3.279,0 -5.938,2.658 -5.938,5.938 0,3.28 2.658,5.938 5.938,5.938 h 358.231 c 3.279,0 5.938,-2.658 5.938,-5.938 0,-3.28 -2.658,-5.938 -5.937,-5.938 z"
   id="path3" />
		<path
   style="fill:#7ead34"
   d="m 390.987,290.947 -3.618,-15.939 c -0.533,-2.348 -3.508,-2.348 -4.04,0 l -3.618,15.939 -5.638,24.839 h 11.277 11.277 z"
   id="path5" />
		<path
   style="fill:#71992b"
   d="m 385.372,273.249 c -0.885,-0.011 -1.775,0.574 -2.044,1.759 l -3.618,15.939 -5.639,24.839 h 11.277 0.024 z"
   id="path7" />
		<path
   style="fill:#7ead34"
   d="m 366.642,296.13 -2.863,-12.613 c -0.422,-1.858 -2.775,-1.858 -3.197,0 l -2.863,12.613 -4.462,19.656 h 8.924 8.924 z"
   id="path9" />
		<path
   style="fill:#71992b"
   d="m 362.199,282.125 c -0.7,-0.008 -1.404,0.455 -1.617,1.392 l -2.863,12.613 -4.462,19.656 h 8.924 0.019 v -33.661 z"
   id="path11" />
		<path
   style="fill:#7ead34"
   d="m 344.426,290.947 -3.618,-15.939 c -0.533,-2.348 -3.507,-2.348 -4.04,0 l -3.618,15.939 -5.638,24.839 h 11.277 11.277 z"
   id="path13" />
		<path
   style="fill:#71992b"
   d="m 338.811,273.249 c -0.885,-0.011 -1.775,0.574 -2.044,1.759 l -3.618,15.939 -5.638,24.839 h 11.277 0.024 v -42.537 z"
   id="path15" />
		<path
   style="fill:#7ead34"
   d="m 320.081,296.13 -2.863,-12.613 c -0.422,-1.858 -2.776,-1.858 -3.197,0 l -2.863,12.613 -4.462,19.656 h 8.924 8.924 z"
   id="path17" />
		<path
   style="fill:#71992b"
   d="m 315.638,282.125 c -0.7,-0.008 -1.405,0.455 -1.617,1.392 l -2.863,12.613 -4.462,19.656 h 8.924 0.019 v -33.661 z"
   id="path19" />
		<path
   style="fill:#8dc63f"
   d="M 401.044,312.741 H 289.416 v 5.653 h 115.01 v -2.27 c 0.001,-1.868 -1.514,-3.383 -3.382,-3.383 z"
   id="path21" />
		
			<rect
   x="77.323997"
   y="107.852"
   transform="rotate(180,93.3066,260.8739)"
   style="fill:#2480c4"
   width="31.966"
   height="306.043"
   id="rect23" />
		<rect
   x="159.26801"
   y="107.852"
   style="fill:#2480c4"
   width="136.812"
   height="260.91501"
   id="rect25" />
		<rect
   x="159.26801"
   y="115.025"
   style="fill:#34add6"
   width="3.5940001"
   height="250.15601"
   id="rect27" />
		<rect
   x="77.323997"
   y="115.025"
   style="fill:#34add6"
   width="3.5940001"
   height="298.871"
   id="rect29" />
		<rect
   x="105.696"
   y="115.025"
   style="fill:#34add6"
   width="3.5940001"
   height="298.871"
   id="rect31" />
		<rect
   x="187.979"
   y="115.025"
   style="fill:#34add6"
   width="3.5940001"
   height="250.15601"
   id="rect33" />
		<rect
   x="216.689"
   y="115.025"
   style="fill:#34add6"
   width="3.5940001"
   height="250.15601"
   id="rect35" />
		<rect
   x="245.399"
   y="115.025"
   style="fill:#34add6"
   width="3.5940001"
   height="250.15601"
   id="rect37" />
		<rect
   x="274.10999"
   y="115.025"
   style="fill:#34add6"
   width="3.5940001"
   height="250.15601"
   id="rect39" />
		
		
		
		
		
		
		
		
		
		
		
		
		<rect
   x="159.26801"
   y="115.025"
   style="opacity:0.2;fill:#2b3990"
   width="136.812"
   height="3.214"
   id="rect65" />
		<rect
   x="159.26801"
   y="138.418"
   style="opacity:0.2;fill:#2b3990"
   width="136.812"
   height="3.214"
   id="rect67" />
		<rect
   x="159.26801"
   y="161.812"
   style="opacity:0.2;fill:#2b3990"
   width="136.812"
   height="3.214"
   id="rect69" />
		<rect
   x="159.26801"
   y="185.20599"
   style="opacity:0.2;fill:#2b3990"
   width="136.812"
   height="3.214"
   id="rect71" />
		<rect
   x="159.26801"
   y="208.599"
   style="opacity:0.2;fill:#2b3990"
   width="136.812"
   height="3.214"
   id="rect73" />
		<rect
   x="159.26801"
   y="231.993"
   style="opacity:0.2;fill:#2b3990"
   width="136.812"
   height="3.214"
   id="rect75" />
		<rect
   x="159.26801"
   y="255.386"
   style="opacity:0.2;fill:#2b3990"
   width="136.812"
   height="3.214"
   id="rect77" />
		<rect
   x="159.26801"
   y="278.78"
   style="opacity:0.2;fill:#2b3990"
   width="136.812"
   height="3.214"
   id="rect79" />
		<rect
   x="159.26801"
   y="302.173"
   style="opacity:0.2;fill:#2b3990"
   width="136.812"
   height="3.214"
   id="rect81" />
		<rect
   x="159.26801"
   y="325.56699"
   style="opacity:0.2;fill:#2b3990"
   width="136.812"
   height="3.214"
   id="rect83" />
		<rect
   x="159.26801"
   y="348.95999"
   style="opacity:0.2;fill:#2b3990"
   width="136.812"
   height="3.214"
   id="rect85" />
		
			
		
			
		
			
		
			
		
			
		
			
		
			
		
			
		
			
		
			
		
			
		
			<rect
   x="77.323997"
   y="115.025"
   transform="rotate(180,93.3066,116.6317)"
   style="opacity:0.2;fill:#2b3990"
   width="31.966"
   height="3.214"
   id="rect109" />
		
			<rect
   x="77.323997"
   y="138.418"
   transform="rotate(180,93.3066,140.0252)"
   style="opacity:0.2;fill:#2b3990"
   width="31.966"
   height="3.214"
   id="rect111" />
		
			<rect
   x="77.323997"
   y="161.812"
   transform="rotate(180,93.3066,163.41875)"
   style="opacity:0.2;fill:#2b3990"
   width="31.966"
   height="3.214"
   id="rect113" />
		
			<rect
   x="77.323997"
   y="185.20599"
   transform="rotate(180,93.3066,186.8123)"
   style="opacity:0.2;fill:#2b3990"
   width="31.966"
   height="3.214"
   id="rect115" />
		
			<rect
   x="77.323997"
   y="208.599"
   transform="rotate(180,93.3066,210.2058)"
   style="opacity:0.2;fill:#2b3990"
   width="31.966"
   height="3.214"
   id="rect117" />
		
			<rect
   x="77.323997"
   y="231.993"
   transform="rotate(180,93.3066,233.59935)"
   style="opacity:0.2;fill:#2b3990"
   width="31.966"
   height="3.214"
   id="rect119" />
		
			<rect
   x="77.323997"
   y="255.386"
   transform="rotate(180,93.3066,256.99285)"
   style="opacity:0.2;fill:#2b3990"
   width="31.966"
   height="3.214"
   id="rect121" />
		
			<rect
   x="77.323997"
   y="278.78"
   transform="rotate(180,93.3066,280.3864)"
   style="opacity:0.2;fill:#2b3990"
   width="31.966"
   height="3.214"
   id="rect123" />
		
			<rect
   x="77.323997"
   y="302.173"
   transform="rotate(180,93.3066,303.7799)"
   style="opacity:0.2;fill:#2b3990"
   width="31.966"
   height="3.214"
   id="rect125" />
		
			<rect
   x="77.323997"
   y="325.56699"
   transform="rotate(180,93.3066,327.17345)"
   style="opacity:0.2;fill:#2b3990"
   width="31.966"
   height="3.214"
   id="rect127" />
		
			<rect
   x="77.323997"
   y="348.95999"
   transform="rotate(180,93.3066,350.567)"
   style="opacity:0.2;fill:#2b3990"
   width="31.966"
   height="3.214"
   id="rect129" />
		
		<text
   transform="translate(179.0137,107.8525)"
   id="text137"
   style="fill:#501616"><tspan
     x="0"
     y="0"
     style="font-size:24.3337px;font-family:OpenSans-Extrabold;letter-spacing:3;fill:#501616"
     id="tspan133">H</tspan><tspan
     x="22.535999"
     y="0"
     style="font-size:24.3337px;font-family:OpenSans-Extrabold;letter-spacing:4;fill:#501616"
     id="tspan135">OTEL</tspan></text>
		
		<rect
   x="223.593"
   y="350.81201"
   style="fill:#ac9393"
   width="204.989"
   height="9.7250004"
   id="rect141" />
		<g
   id="g177">
			<rect
   x="353.48801"
   y="371.02301"
   style="fill:#2480c4"
   width="62.917"
   height="39.827999"
   id="rect143" />
			<rect
   x="353.48801"
   y="371.02301"
   style="fill:#24428b"
   width="1.5549999"
   height="39.827999"
   id="rect145" />
			<rect
   x="362.254"
   y="371.02301"
   style="fill:#24428b"
   width="1.5549999"
   height="39.827999"
   id="rect147" />
			<rect
   x="371.01999"
   y="371.02301"
   style="fill:#24428b"
   width="1.5549999"
   height="39.827999"
   id="rect149" />
			<rect
   x="379.78601"
   y="371.02301"
   style="fill:#24428b"
   width="1.5549999"
   height="39.827999"
   id="rect151" />
			<rect
   x="388.552"
   y="371.02301"
   style="fill:#24428b"
   width="1.5549999"
   height="39.827999"
   id="rect153" />
			<rect
   x="397.31799"
   y="371.02301"
   style="fill:#24428b"
   width="1.5549999"
   height="39.827999"
   id="rect155" />
			<rect
   x="406.08401"
   y="371.02301"
   style="fill:#24428b"
   width="1.5549999"
   height="39.827999"
   id="rect157" />
			<rect
   x="414.85001"
   y="371.02301"
   style="fill:#24428b"
   width="1.5549999"
   height="39.827999"
   id="rect159" />
			
				<rect
   x="384.16901"
   y="341.897"
   transform="rotate(90,384.94635,371.80075)"
   style="fill:#24428b"
   width="1.5549999"
   height="59.806999"
   id="rect161" />
			<rect
   x="355.043"
   y="372.578"
   style="fill:#34add6"
   width="2.039"
   height="38.272999"
   id="rect163" />
			<rect
   x="363.80899"
   y="372.578"
   style="fill:#34add6"
   width="2.039"
   height="38.272999"
   id="rect165" />
			<rect
   x="372.57501"
   y="372.578"
   style="fill:#34add6"
   width="2.039"
   height="38.272999"
   id="rect167" />
			<rect
   x="381.341"
   y="372.578"
   style="fill:#34add6"
   width="2.039"
   height="38.272999"
   id="rect169" />
			<rect
   x="390.10699"
   y="372.578"
   style="fill:#34add6"
   width="2.039"
   height="38.272999"
   id="rect171" />
			<rect
   x="398.87299"
   y="372.578"
   style="fill:#34add6"
   width="2.039"
   height="38.272999"
   id="rect173" />
			<rect
   x="407.63901"
   y="372.578"
   style="fill:#34add6"
   width="2.039"
   height="38.272999"
   id="rect175" />
		</g>
		<g
   id="g213">
			<rect
   x="284.48099"
   y="371.02301"
   style="fill:#2480c4"
   width="62.917"
   height="39.827999"
   id="rect179" />
			<rect
   x="284.48099"
   y="371.02301"
   style="fill:#24428b"
   width="1.5549999"
   height="39.827999"
   id="rect181" />
			<rect
   x="293.24701"
   y="371.02301"
   style="fill:#24428b"
   width="1.5549999"
   height="39.827999"
   id="rect183" />
			<rect
   x="302.013"
   y="371.02301"
   style="fill:#24428b"
   width="1.5549999"
   height="39.827999"
   id="rect185" />
			<rect
   x="310.78"
   y="371.02301"
   style="fill:#24428b"
   width="1.5549999"
   height="39.827999"
   id="rect187" />
			<rect
   x="319.54599"
   y="371.02301"
   style="fill:#24428b"
   width="1.5549999"
   height="39.827999"
   id="rect189" />
			<rect
   x="328.31201"
   y="371.02301"
   style="fill:#24428b"
   width="1.5549999"
   height="39.827999"
   id="rect191" />
			<rect
   x="337.078"
   y="371.02301"
   style="fill:#24428b"
   width="1.5549999"
   height="39.827999"
   id="rect193" />
			<rect
   x="345.84399"
   y="371.02301"
   style="fill:#24428b"
   width="1.5549999"
   height="39.827999"
   id="rect195" />
			
				<rect
   x="315.16299"
   y="341.897"
   transform="rotate(90,315.94015,371.80075)"
   style="fill:#24428b"
   width="1.5549999"
   height="59.806999"
   id="rect197" />
			<rect
   x="286.03699"
   y="372.578"
   style="fill:#34add6"
   width="2.039"
   height="38.272999"
   id="rect199" />
			<rect
   x="294.80301"
   y="372.578"
   style="fill:#34add6"
   width="2.039"
   height="38.272999"
   id="rect201" />
			<rect
   x="303.569"
   y="372.578"
   style="fill:#34add6"
   width="2.039"
   height="38.272999"
   id="rect203" />
			<rect
   x="312.33499"
   y="372.578"
   style="fill:#34add6"
   width="2.039"
   height="38.272999"
   id="rect205" />
			<rect
   x="321.10101"
   y="372.578"
   style="fill:#34add6"
   width="2.039"
   height="38.272999"
   id="rect207" />
			<rect
   x="329.867"
   y="372.578"
   style="fill:#34add6"
   width="2.039"
   height="38.272999"
   id="rect209" />
			<rect
   x="338.633"
   y="372.578"
   style="fill:#34add6"
   width="2.039"
   height="38.272999"
   id="rect211" />
		</g>
		<rect
   x="231.543"
   y="371.02301"
   style="fill:#2480c4"
   width="46.511002"
   height="42.873001"
   id="rect215" />
		<rect
   x="276.49899"
   y="371.02301"
   style="fill:#24428b"
   width="1.5549999"
   height="42.873001"
   id="rect217" />
		<rect
   x="231.543"
   y="371.02301"
   style="fill:#24428b"
   width="1.5549999"
   height="42.873001"
   id="rect219" />
		<rect
   x="238.45599"
   y="371.02301"
   style="fill:#24428b"
   width="1.5549999"
   height="42.873001"
   id="rect221" />
		<rect
   x="254.021"
   y="371.02301"
   style="fill:#24428b"
   width="1.5549999"
   height="42.873001"
   id="rect223" />
		<rect
   x="269.586"
   y="371.02301"
   style="fill:#24428b"
   width="1.5549999"
   height="42.873001"
   id="rect225" />
		
			<rect
   x="254.021"
   y="350.10001"
   transform="rotate(90,254.7986,371.8008)"
   style="fill:#24428b"
   width="1.5549999"
   height="43.401001"
   id="rect227" />
		<rect
   x="233.09801"
   y="372.578"
   style="fill:#34add6"
   width="2.039"
   height="41.317001"
   id="rect229" />
		<rect
   x="271.14099"
   y="372.578"
   style="fill:#34add6"
   width="2.039"
   height="41.317001"
   id="rect231" />
		
			<rect
   x="254.021"
   y="357.20401"
   transform="rotate(90,254.79855,378.90435)"
   style="fill:#24428b"
   width="1.5549999"
   height="43.401001"
   id="rect233" />
		<rect
   x="231.543"
   y="369.078"
   style="fill:#b5c3ea"
   width="46.511002"
   height="1.9450001"
   id="rect235" />
		<rect
   x="284.48099"
   y="369.078"
   style="fill:#b5c3ea"
   width="62.917"
   height="1.9450001"
   id="rect237" />
		<rect
   x="353.48801"
   y="369.078"
   style="fill:#b5c3ea"
   width="62.917"
   height="1.9450001"
   id="rect239" />
		<rect
   x="223.593"
   y="360.53699"
   style="opacity:0.2;fill:#2b3990"
   width="200.592"
   height="4.6440001"
   id="rect241" />
		
		<g
   id="g1293"
   style="fill:#d35f5f"><rect
     x="109.29"
     y="102.002"
     style="fill:#d35f5f"
     width="49.979"
     height="311.89401"
     id="rect41" /><rect
     x="159.26801"
     y="107.852"
     style="fill:#d35f5f"
     width="139.91499"
     height="7.1729999"
     id="rect43" /><rect
     x="159.26801"
     y="131.246"
     style="fill:#d35f5f"
     width="139.91499"
     height="7.1729999"
     id="rect45" /><rect
     x="159.26801"
     y="154.63901"
     style="fill:#d35f5f"
     width="139.91499"
     height="7.1729999"
     id="rect47" /><rect
     x="159.26801"
     y="178.033"
     style="fill:#d35f5f"
     width="139.91499"
     height="7.1729999"
     id="rect49" /><rect
     x="159.26801"
     y="201.42599"
     style="fill:#d35f5f"
     width="139.91499"
     height="7.1729999"
     id="rect51" /><rect
     x="159.26801"
     y="224.82001"
     style="fill:#d35f5f"
     width="139.91499"
     height="7.1729999"
     id="rect53" /><rect
     x="159.26801"
     y="248.213"
     style="fill:#d35f5f"
     width="139.91499"
     height="7.1729999"
     id="rect55" /><rect
     x="159.26801"
     y="271.60699"
     style="fill:#d35f5f"
     width="139.91499"
     height="7.1729999"
     id="rect57" /><rect
     x="159.26801"
     y="295"
     style="fill:#d35f5f"
     width="139.91499"
     height="7.1729999"
     id="rect59" /><rect
     x="159.26801"
     y="318.39401"
     style="fill:#d35f5f"
     width="139.91499"
     height="7.1729999"
     id="rect61" /><rect
     x="159.26801"
     y="341.78799"
     style="fill:#d35f5f"
     width="139.91499"
     height="7.1729999"
     id="rect63" /><rect
     x="74.220001"
     y="107.852"
     transform="rotate(180,91.75495,111.43855)"
     style="fill:#d35f5f"
     width="35.069"
     height="7.1729999"
     id="rect87" /><rect
     x="74.220001"
     y="131.246"
     transform="rotate(180,91.75495,134.83205)"
     style="fill:#d35f5f"
     width="35.069"
     height="7.1729999"
     id="rect89" /><rect
     x="74.220001"
     y="154.63901"
     transform="rotate(180,91.75495,158.22565)"
     style="fill:#d35f5f"
     width="35.069"
     height="7.1729999"
     id="rect91" /><rect
     x="74.220001"
     y="178.033"
     transform="rotate(180,91.75495,181.61915)"
     style="fill:#d35f5f"
     width="35.069"
     height="7.1729999"
     id="rect93" /><rect
     x="74.220001"
     y="201.42599"
     transform="rotate(180,91.75495,205.01265)"
     style="fill:#d35f5f"
     width="35.069"
     height="7.1729999"
     id="rect95" /><rect
     x="74.220001"
     y="224.82001"
     transform="rotate(180,91.75495,228.40625)"
     style="fill:#d35f5f"
     width="35.069"
     height="7.1729999"
     id="rect97" /><rect
     x="74.220001"
     y="248.213"
     transform="rotate(180,91.75495,251.79975)"
     style="fill:#d35f5f"
     width="35.069"
     height="7.1729999"
     id="rect99" /><rect
     x="74.220001"
     y="271.60699"
     transform="rotate(180,91.75495,275.19325)"
     style="fill:#d35f5f"
     width="35.069"
     height="7.1729999"
     id="rect101" /><rect
     x="74.220001"
     y="295"
     transform="rotate(180,91.75495,298.58675)"
     style="fill:#d35f5f"
     width="35.069"
     height="7.1729999"
     id="rect103" /><rect
     x="74.220001"
     y="318.39401"
     transform="rotate(180,91.75495,321.98035)"
     style="fill:#d35f5f"
     width="35.069"
     height="7.1729999"
     id="rect105" /><rect
     x="74.220001"
     y="341.78799"
     transform="rotate(180,91.75495,345.37385)"
     style="fill:#d35f5f"
     width="35.069"
     height="7.1729999"
     id="rect107" /><rect
     x="159.26801"
     y="365.181"
     style="fill:#d35f5f"
     width="139.91499"
     height="48.715"
     id="rect131" /><rect
     x="223.593"
     y="360.53699"
     style="fill:#d35f5f"
     width="200.592"
     height="53.359001"
     id="rect139" /><rect
     x="359.57599"
     y="336.853"
     style="fill:#d35f5f"
     width="14.018"
     height="13.959"
     id="rect243" /><rect
     x="223.593"
     y="336.853"
     style="fill:#d35f5f"
     width="14.018"
     height="13.959"
     id="rect245" /></g>
		<rect
   x="237.61099"
   y="336.853"
   style="fill:#2480c4"
   width="121.965"
   height="13.959"
   id="rect247" />
		<rect
   x="373.59399"
   y="336.853"
   style="fill:#2480c4"
   width="28.857"
   height="13.959"
   id="rect249" />
		<rect
   x="237.61099"
   y="336.853"
   style="fill:#34add6"
   width="2.039"
   height="13.959"
   id="rect251" />
		<rect
   x="259.68301"
   y="336.853"
   style="fill:#34add6"
   width="2.039"
   height="13.959"
   id="rect253" />
		<rect
   x="281.755"
   y="336.853"
   style="fill:#34add6"
   width="2.039"
   height="13.959"
   id="rect255" />
		<rect
   x="303.827"
   y="336.853"
   style="fill:#34add6"
   width="2.039"
   height="13.959"
   id="rect257" />
		<rect
   x="325.89899"
   y="336.853"
   style="fill:#34add6"
   width="2.039"
   height="13.959"
   id="rect259" />
		<rect
   x="373.59399"
   y="336.853"
   style="fill:#34add6"
   width="2.039"
   height="13.959"
   id="rect261" />
		<rect
   x="347.97101"
   y="336.853"
   style="fill:#34add6"
   width="2.039"
   height="13.959"
   id="rect263" />
		<rect
   x="223.593"
   y="318.39401"
   style="fill:#ac9393"
   width="183.26801"
   height="18.459"
   id="rect265" />
		<rect
   x="223.593"
   y="336.853"
   style="opacity:0.2;fill:#2b3990"
   width="178.858"
   height="5.0739999"
   id="rect267" />
		<rect
   x="109.29"
   y="102.002"
   style="fill:#ac9393"
   width="6.0890002"
   height="311.89401"
   id="rect269" />
		<g
   id="g293">
			<rect
   x="74.220001"
   y="107.852"
   style="fill:#ac9393"
   width="15.661"
   height="7.1729999"
   id="rect271" />
			<rect
   x="74.220001"
   y="131.246"
   style="fill:#ac9393"
   width="15.661"
   height="7.1729999"
   id="rect273" />
			<rect
   x="74.220001"
   y="154.63901"
   style="fill:#ac9393"
   width="15.661"
   height="7.1729999"
   id="rect275" />
			<rect
   x="74.220001"
   y="178.033"
   style="fill:#ac9393"
   width="15.661"
   height="7.1729999"
   id="rect277" />
			<rect
   x="74.220001"
   y="201.42599"
   style="fill:#ac9393"
   width="15.661"
   height="7.1729999"
   id="rect279" />
			<rect
   x="74.220001"
   y="224.82001"
   style="fill:#ac9393"
   width="15.661"
   height="7.1729999"
   id="rect281" />
			<rect
   x="74.220001"
   y="248.213"
   style="fill:#ac9393"
   width="15.661"
   height="7.1729999"
   id="rect283" />
			<rect
   x="74.220001"
   y="271.60699"
   style="fill:#ac9393"
   width="15.661"
   height="7.1729999"
   id="rect285" />
			<rect
   x="74.220001"
   y="295"
   style="fill:#ac9393"
   width="15.661"
   height="7.1729999"
   id="rect287" />
			<rect
   x="74.220001"
   y="318.39401"
   style="fill:#ac9393"
   width="15.661"
   height="7.1729999"
   id="rect289" />
			<rect
   x="74.220001"
   y="341.78799"
   style="fill:#ac9393"
   width="15.661"
   height="7.1729999"
   id="rect291" />
		</g>
		<g
   id="g317">
			<rect
   x="191.573"
   y="107.852"
   style="fill:#ac9393"
   width="15.661"
   height="7.1729999"
   id="rect295" />
			<rect
   x="191.573"
   y="131.246"
   style="fill:#ac9393"
   width="15.661"
   height="7.1729999"
   id="rect297" />
			<rect
   x="191.573"
   y="154.63901"
   style="fill:#ac9393"
   width="15.661"
   height="7.1729999"
   id="rect299" />
			<rect
   x="191.573"
   y="178.033"
   style="fill:#ac9393"
   width="15.661"
   height="7.1729999"
   id="rect301" />
			<rect
   x="191.573"
   y="201.42599"
   style="fill:#ac9393"
   width="15.661"
   height="7.1729999"
   id="rect303" />
			<rect
   x="191.573"
   y="224.82001"
   style="fill:#ac9393"
   width="15.661"
   height="7.1729999"
   id="rect305" />
			<rect
   x="191.573"
   y="248.213"
   style="fill:#ac9393"
   width="15.661"
   height="7.1729999"
   id="rect307" />
			<rect
   x="191.573"
   y="271.60699"
   style="fill:#ac9393"
   width="15.661"
   height="7.1729999"
   id="rect309" />
			<rect
   x="191.573"
   y="295"
   style="fill:#ac9393"
   width="15.661"
   height="7.1729999"
   id="rect311" />
			<rect
   x="191.573"
   y="318.39401"
   style="fill:#ac9393"
   width="15.661"
   height="7.1729999"
   id="rect313" />
			<rect
   x="191.573"
   y="341.78799"
   style="fill:#ac9393"
   width="15.661"
   height="7.1729999"
   id="rect315" />
		</g>
		<g
   id="g337">
			<rect
   x="277.70401"
   y="107.852"
   style="fill:#ac9393"
   width="15.661"
   height="7.1729999"
   id="rect319" />
			<rect
   x="277.70401"
   y="131.246"
   style="fill:#ac9393"
   width="15.661"
   height="7.1729999"
   id="rect321" />
			<rect
   x="277.70401"
   y="154.63901"
   style="fill:#ac9393"
   width="15.661"
   height="7.1729999"
   id="rect323" />
			<rect
   x="277.70401"
   y="178.033"
   style="fill:#ac9393"
   width="15.661"
   height="7.1729999"
   id="rect325" />
			<rect
   x="277.70401"
   y="201.42599"
   style="fill:#ac9393"
   width="15.661"
   height="7.1729999"
   id="rect327" />
			<rect
   x="277.70401"
   y="224.82001"
   style="fill:#ac9393"
   width="15.661"
   height="7.1729999"
   id="rect329" />
			<rect
   x="277.70401"
   y="248.213"
   style="fill:#ac9393"
   width="15.661"
   height="7.1729999"
   id="rect331" />
			<rect
   x="277.70401"
   y="271.60699"
   style="fill:#ac9393"
   width="15.661"
   height="7.1729999"
   id="rect333" />
			<rect
   x="277.70401"
   y="295"
   style="fill:#ac9393"
   width="15.661"
   height="7.1729999"
   id="rect335" />
		</g>
		<rect
   x="153.17999"
   y="102.002"
   style="fill:#ac9393"
   width="6.0890002"
   height="311.89401"
   id="rect339" />
		<rect
   x="130.60001"
   y="107.852"
   style="opacity:0.2;fill:#2b3990"
   width="7.3569999"
   height="306.043"
   id="rect341" />
		<rect
   x="296.07999"
   y="316.80099"
   style="fill:#7ead34"
   width="108.346"
   height="1.5930001"
   id="rect343" />
		<polygon
   style="opacity:0.2;fill:#2b3990"
   points="216.689,395.278 159.268,395.278 159.268,413.896 223.593,413.896 223.593,397.308 223.593,395.278 223.593,365.181 216.689,365.181 "
   id="polygon345" />
	</g>
</g>

<metadata
   id="metadata1700"><rdf:RDF><cc:Work
       rdf:about="" /></rdf:RDF></metadata></svg>
