<?xml version="1.0" encoding="UTF-8" standalone="no"?>
<!-- Generator: Adobe Illustrator 27.5.0, SVG Export Plug-In . SVG Version: 6.00 Build 0)  -->

<svg
   version="1.1"
   x="0px"
   y="0px"
   viewBox="0 0 600 400"
   xml:space="preserve"
   id="svg226"
   width="600"
   height="400"
   xmlns="http://www.w3.org/2000/svg"
   xmlns:svg="http://www.w3.org/2000/svg"><defs
   id="defs230" />

<g
   id="Objects"
   transform="matrix(0.6,0,0,0.6,58.937618,-45.327118)">
	
	<g
   id="g85">
		<g
   id="g79">
			<path
   style="fill:#191919"
   d="M 666.948,333.669 H 120.928 V 160.91 h 546.02 z M 132.267,322.331 H 655.61 V 172.249 H 132.267 Z"
   id="path77" />
		</g>
		<rect
   x="132.267"
   y="172.24899"
   style="fill:#477ea0"
   width="523.34302"
   height="150.082"
   id="rect81" />
		<path
   style="fill:#00374c"
   d="m 133.565,252.296 h 1.009 v -0.949 h 2.848 c 0,0 -0.339,-0.61 0,-0.61 0.339,0 1.56,0 1.56,0 v -0.814 h 0.881 v -1.56 h 1.152 v -0.406 h 3.661 v -0.61 h 1.221 2.441 v -1.085 h 6.373 v 3.018 h 1.695 v -4.983 h 4.204 v -0.61 h 4.678 0.95 v 0.813 c 0,0 3.051,1.355 3.051,1.153 0,-0.204 0,10.508 0,10.508 h 1.559 v -5.491 h 1.017 v -14.781 h 2.983 v -5.627 h 6.373 l 2.644,0.881 v 1.966 h 8.069 v -2.508 h 1.084 v 2.576 h 5.83 l 3.796,2.17 4.679,-9.424 v -1.694 l 2.44,-3.865 v -1.017 h 1.085 v 1.085 l 2.848,3.865 v 2.034 l 4.407,9.966 v 0.813 l 1.492,0.645 v 9.524 h 3.729 v -13.831 h 3.729 v -0.609 h 4.339 v -1.153 h 1.898 v -2.711 h 2.306 v -2.033 h 2.169 v 2.236 l 2.576,1.017 v 2.17 l 0.678,0.406 v 1.221 l 0.542,0.203 v 17.56 h 2.508 v 1.424 h 1.899 V 239.28 h 3.864 v -1.017 h 4.746 v 1.017 h 1.628 l 2.509,1.763 v 6.847 h 1.831 v -7.864 h 1.559 l 3.254,-5.424 h 7.729 l 3.186,5.017 h 1.221 v 7.593 h 1.559 v -0.949 h 10.576 v -1.424 h 6.305 v 6.305 h 1.085 v -9.085 h 11.186 v 32.678 h 1.424 v -21.424 h 3.118 v -2.711 h 0.949 v -2.305 h 2.305 v -2.17 h 1.085 v -1.356 h 0.542 v -1.762 h 1.017 v -1.966 h 1.356 v -3.323 l 1.559,-3.932 1.153,4 v 6.103 h 1.22 v 3.525 h 1.492 v 0.813 h 1.356 v 2.033 h 1.288 v 36.747 h 1.221 v 4.135 h 2.915 v -13.967 h 1.966 v -45.762 l 4.271,2.916 v -2.983 l 3.254,3.05 h 4.542 l 1.831,-1.898 v 1.694 l 4.542,-2.44 v 39.118 l 1.051,-1.05 v -1.39 h 2.542 v -0.678 h 2.238 v -16.339 h 2.237 v -0.543 h 6.712 v 0.407 h 2.576 v 1.966 h 0.814 v -5.492 l 2.712,-12.339 0.407,-0.204 v -6.169 l 0.407,6.102 0.61,0.271 2.305,12.407 v 5.627 h 0.949 v 3.864 h 0.475 v -28.339 l 6.916,-2.508 v -7.119 l 2.78,1.356 0.746,-23.594 1.221,24.679 2.576,1.626 v 10.917 h 2.779 v 16.746 h 0.475 v -0.949 h 0.882 l 0.813,-0.813 1.151,1.017 h 1.357 v 4.339 h 1.492 v -6.982 l 1.084,-1.017 h 1.153 v -2.034 l 1.693,-1.289 h 1.492 v -7.796 l 18.034,-0.949 v 5.017 h 0.814 v -2.102 l 1.898,-1.967 4.476,-0.203 v 2.372 h 4.543 v -3.118 l 2.44,-1.695 v -2.576 l 1.354,-0.407 v -8.881 h 0.543 v 8.543 l 0.745,-0.611 v -2.983 l 2.441,-1.085 h 12.067 v 2.848 h 0.68 v -2.372 h 0.947 v -4.882 l 1.287,-0.813 v -2.577 l 1.425,-0.746 h 8.204 v 5.288 h 2.644 v 11.051 h 0.813 v -0.948 l 0.611,-0.61 v -10.78 l 1.625,-0.542 h 1.695 v -4.475 l 1.764,-0.542 h 7.864 v 7.051 h 0.678 v 17.22 h 1.018 v 15.458 h 1.762 v 1.221 h 7.662 v 16.678 h 1.151 v -22.441 h 8.271 v 0.949 h 0.95 v -1.899 h 2.915 v 1.763 h 2.711 v 3.797 h 0.883 v 14.576 h 0.541 v 3.39 h 1.764 v 0.881 h 0.678 v 1.424 h 1.695 v -2.44 h 0.813 v -1.627 h 0.949 v 1.424 h 0.746 v 2.712 h 1.084 v 0.746 h 1.425 v -1.966 h 2.575 v -2.102 H 528 v -2.509 h 1.83 v 1.763 h 1.492 v -1.084 h 0.745 v -9.221 h 11.797 v 13.424 h 0.813 v -2.915 h 1.629 v 1.085 h 0.679 v -0.679 h 2.168 v -1.559 h 6.374 l 1.763,2.169 v -37.628 -9.559 l 0.88,-0.881 v -4.271 l 2.102,-2.305 1.017,-12.068 1.29,-1.967 V 189.18 h 0.746 l 0.405,14.169 1.288,2.169 1.221,11.661 2.17,2.509 v 3.661 l 1.491,1.696 v 7.932 h 0.678 v 19.458 h 0.949 v -1.153 l 1.424,-0.339 v -1.221 h 7.931 4.883 l 0.746,4.611 v 7.525 h 2.643 v -3.797 h 3.662 v 1.763 l 2.17,0.95 v 1.152 h 4.339 l 1.354,-0.746 v -2.848 h 9.492 v -19.525 l 0.609,-0.407 v -3.525 l 7.052,-1.356 h 7.999 c 0,0 0,4.339 0,4.136 0,-0.204 0.746,0 0.746,0 v 11.255 h 5.492 l 1.152,0.745 v 1.152 h 1.967 v 8.475 h 3.456 v -1.966 h 2.983 v 4.135 h 1.967 v 2.306 h 0.746 v -0.814 h 6.442 v 1.695 l 4.88,0.015 v 57.68 H 132.267 l 0.002,-69.085 z"
   id="path83" />
	</g>
	<g
   id="g133">
		<rect
   x="241.425"
   y="645.01599"
   style="opacity:0.3;fill:#005559"
   width="329.57501"
   height="11.122"
   id="rect87" />
		<g
   id="g131">
			<rect
   x="241.425"
   y="425.24899"
   style="fill:#231f20"
   width="319.57999"
   height="95.103996"
   id="rect89" />
			<rect
   x="554.172"
   y="397.082"
   style="fill:#9b592d"
   width="19.926001"
   height="151.269"
   id="rect91" />
			<rect
   x="225.90199"
   y="397.082"
   style="fill:#9b592d"
   width="19.927"
   height="151.269"
   id="rect93" />
			<path
   style="fill:#ffd833"
   d="m 581.289,539.117 c 0,4.965 0,6.423 0,6.423 H 218.711 c 0,0 0,0.341 0,-4.625 v -9.889 c 0,-9.93 8.049,-17.979 17.979,-17.979 h 326.62 c 9.931,0 17.979,8.049 17.979,17.979 z"
   id="path95" />
			<path
   style="fill:#fffad9"
   d="m 574.098,545.524 c 0,4.965 0,2.826 0,2.826 H 225.902 c 0,0 0,2.139 0,-2.826 v -7.192 c 0,-9.929 8.049,-17.978 17.979,-17.978 h 312.236 c 9.931,0 17.979,8.05 17.979,17.978 v 7.192 z"
   id="path97" />
			<path
   style="fill:#ffffff;stroke:#231f20;stroke-miterlimit:10"
   d="M 567.443,549.476"
   id="path99" />
			<rect
   x="217.811"
   y="548.37799"
   style="fill:#c68967"
   width="364.37799"
   height="8.0360003"
   id="rect101" />
			<rect
   x="225.90199"
   y="556.414"
   style="fill:#9b592d"
   width="19.927"
   height="99.723999"
   id="rect103" />
			<rect
   x="554.172"
   y="556.414"
   style="fill:#9b592d"
   width="19.926001"
   height="99.723999"
   id="rect105" />
			<rect
   x="245.82899"
   y="556.414"
   style="fill:#231f20"
   width="308.34299"
   height="71.856003"
   id="rect107" />
			<g
   id="g121">
				<g
   id="g113">
					<path
   style="fill:#f9e595"
   d="m 250.931,513.048 c 0,0 1.559,-25.238 12.087,-37.609 0,0 43.084,-11.134 108.002,0 0,0 9.748,13.362 9.358,37.609 z"
   id="path109" />
					<path
   style="fill:#fffad9"
   d="m 265.913,513.048 c 0,0 1.199,-15.995 9.289,-23.837 0,0 33.111,-7.057 83.004,0 0,0 7.491,8.469 7.191,23.837 z"
   id="path111" />
				</g>
				<g
   id="g119">
					<path
   style="fill:#f9e595"
   d="m 419.61,513.048 c 0,0 1.561,-25.238 12.087,-37.609 0,0 43.085,-11.134 108.003,0 0,0 9.748,13.362 9.358,37.609 z"
   id="path115" />
					<path
   style="fill:#fffad9"
   d="m 434.595,513.048 c 0,0 1.197,-15.995 9.288,-23.837 0,0 33.111,-7.057 83.004,0 0,0 7.49,8.469 7.191,23.837 z"
   id="path117" />
				</g>
			</g>
			<rect
   x="245.82899"
   y="421.354"
   style="fill:#c68967"
   width="308.34299"
   height="7.79"
   id="rect123" />
			<rect
   x="245.82899"
   y="435.43799"
   style="fill:#c68967"
   width="308.34299"
   height="2.997"
   id="rect125" />
			<rect
   x="245.82899"
   y="443.228"
   style="fill:#c68967"
   width="308.34299"
   height="2.9960001"
   id="rect127" />
			<rect
   x="217.811"
   y="389.29099"
   style="fill:#c68967"
   width="364.38"
   height="7.7909999"
   id="rect129" />
		</g>
	</g>
	<g
   id="g181">
		<rect
   x="53.682999"
   y="646.875"
   style="opacity:0.3;fill:#005559"
   width="124.933"
   height="9.2629995"
   id="rect135" />
		<g
   id="g157">
			<rect
   x="41.955002"
   y="577.297"
   style="fill:#9b592d"
   width="147.05299"
   height="69.957001"
   id="rect137" />
			<rect
   x="48.221001"
   y="583.00702"
   style="fill:#231f20"
   width="134.52"
   height="58.535999"
   id="rect139" />
			<rect
   x="97.278"
   y="591.216"
   style="fill:#c68967"
   width="36.405998"
   height="4.046"
   id="rect141" />
			<g
   id="g151">
				<rect
   x="41.955002"
   y="513.04999"
   style="fill:#9b592d"
   width="147.05299"
   height="69.957001"
   id="rect143" />
				<rect
   x="48.221001"
   y="518.76099"
   style="fill:#231f20"
   width="134.52"
   height="58.535999"
   id="rect145" />
				<rect
   x="97.278"
   y="526.96997"
   style="fill:#c68967"
   width="36.405998"
   height="4.046"
   id="rect147" />
				<rect
   x="36.481998"
   y="513.04999"
   style="fill:#c68967"
   width="157.998"
   height="5.711"
   id="rect149" />
			</g>
			<polygon
   style="fill:#6d6e71"
   points="53.683,647.254 49.559,647.254 51.145,656.138 53.683,656.138 56.221,656.138 57.807,647.254 "
   id="polygon153" />
			<polygon
   style="fill:#6d6e71"
   points="178.617,647.254 174.492,647.254 176.079,656.138 178.617,656.138 181.155,656.138 182.741,647.254 "
   id="polygon155" />
		</g>
		<g
   id="g165">
			<rect
   x="42.585999"
   y="429.14499"
   style="fill:#eacd50"
   width="70.5"
   height="53.855"
   id="rect159" />
			<rect
   x="72.335999"
   y="483"
   style="fill:#d1d3d4"
   width="11"
   height="25"
   id="rect161" />
			<rect
   x="51.279999"
   y="508"
   style="fill:#bcbec0"
   width="53.112"
   height="5.0479999"
   id="rect163" />
		</g>
		<g
   id="g179">
			<rect
   x="138.5"
   y="470.48999"
   style="fill:#005866"
   width="34.167"
   height="33.176998"
   id="rect167" />
			<path
   style="fill:#689b18"
   d="m 171.25,489 c 0,0 -1.625,-1.75 -5.125,-1.125 -3.5,0.625 -9.25,4.539 -12.75,3.895 -3.5,-0.645 -1.625,3.668 -1,3.449 0.625,-0.219 13.625,2.031 14,1.656 0.375,-0.375 3.75,-4.546 3.75,-4.546 z"
   id="path169" />
			<path
   style="fill:#8dc63f"
   d="m 138.75,489.625 c 0,0 3.875,-5.125 10.125,-3.375 6.25,1.75 11.378,6.25 15.875,6.25 4.497,0 7.5,-3.307 7.5,-3.307 l 3.125,6.932 c 0,0 -4.375,7.375 -4.75,7.25 -0.375,-0.125 -16.25,1.75 -19.125,1 -2.875,-0.75 -10.75,-2.75 -11.375,-3.125 -0.625,-0.375 -2.875,-2.125 -3,-3.125 -0.125,-1 -0.375,-6.086 0,-6.355 0.375,-0.27 1.625,-2.145 1.625,-2.145 z"
   id="path171" />
			<g
   id="g175">
				<path
   style="fill:#00a79d"
   d="m 183.42,513.048 h -56.822 v -55.341 h 56.822 z m -42.65,-14.174 h 28.477 V 471.881 H 140.77 Z"
   id="path173" />
			</g>
			<path
   style="fill:#f9e595"
   d="m 163.652,478.583 c 0,2.071 -1.679,3.751 -3.751,3.751 -2.071,0 -3.751,-1.68 -3.751,-3.751 0,-2.07 1.68,-3.75 3.751,-3.75 2.072,0 3.751,1.68 3.751,3.75 z"
   id="path177" />
		</g>
	</g>
	<g
   id="g223">
		<rect
   x="622.05499"
   y="645.65399"
   style="opacity:0.3;fill:#005559"
   width="124.934"
   height="10.483"
   id="rect183" />
		<g
   id="g205">
			<rect
   x="610.995"
   y="577.29602"
   style="fill:#9b592d"
   width="147.052"
   height="69.957001"
   id="rect185" />
			<rect
   x="617.26202"
   y="583.00702"
   style="fill:#231f20"
   width="134.519"
   height="58.535999"
   id="rect187" />
			<rect
   x="666.31702"
   y="591.216"
   style="fill:#c68967"
   width="36.405998"
   height="4.0450001"
   id="rect189" />
			<g
   id="g199">
				<rect
   x="610.995"
   y="513.04999"
   style="fill:#9b592d"
   width="147.052"
   height="69.957001"
   id="rect191" />
				<rect
   x="617.26202"
   y="518.76099"
   style="fill:#231f20"
   width="134.519"
   height="58.535"
   id="rect193" />
				<rect
   x="666.31702"
   y="526.96997"
   style="fill:#c68967"
   width="36.405998"
   height="4.0450001"
   id="rect195" />
				<rect
   x="605.52197"
   y="513.04999"
   style="fill:#915a34"
   width="157.99699"
   height="5.711"
   id="rect197" />
			</g>
			<polygon
   style="fill:#6d6e71"
   points="622.724,647.253 618.6,647.253 620.185,656.138 622.724,656.138 625.261,656.138 626.847,647.253 "
   id="polygon201" />
			<polygon
   style="fill:#6d6e71"
   points="747.656,647.253 743.532,647.253 745.118,656.138 747.656,656.138 750.194,656.138 751.78,647.253 "
   id="polygon203" />
		</g>
		<g
   id="g213">
			<path
   style="fill:#d3d3d3"
   d="m 664.332,500.92 h 65.713 c 0,0 3.944,5.247 0,10.496 h -65.713 c 0,0 4.909,-5.249 0,-10.496 z"
   id="path207" />
			<path
   style="fill:#005866"
   d="M 730.045,500.92 H 661.28 v -1.658 h 69.088 c 0,0 2.856,1.468 2.957,6.905 h -1.527 c 0,0 -0.065,-2.985 -1.753,-5.247 z"
   id="path209" />
			<path
   style="fill:#005866"
   d="M 730.045,511.415 H 661.28 v 1.658 h 69.088 c 0,0 2.957,-1.506 2.957,-6.906 h -1.527 c 0,0 -0.065,2.986 -1.753,5.248 z"
   id="path211" />
		</g>
		<g
   id="g221">
			<path
   style="fill:#d3d3d3"
   d="m 669.872,488.632 h 57.476 c 0,0 3.45,4.59 0,9.18 h -57.476 c 0,-0.001 4.294,-4.59 0,-9.18 z"
   id="path215" />
			<path
   style="fill:#be1e2d"
   d="m 727.348,488.632 h -60.145 v -1.45 h 60.429 c 0,0 2.498,1.283 2.585,6.04 h -1.335 c 0,0 -0.057,-2.613 -1.534,-4.59 z"
   id="path217" />
			<path
   style="fill:#be1e2d"
   d="m 727.348,497.81 h -60.145 v 1.451 h 60.429 c 0,0 2.585,-1.317 2.585,-6.04 h -1.335 c 0,10e-4 -0.057,2.612 -1.534,4.589 z"
   id="path219" />
		</g>
	</g>
</g>
</svg>
