<svg id="booking-logo" viewBox="0 0 512 512" xmlns="http://www.w3.org/2000/svg"><g><path d="m316 180c8.276 0 15-6.724 15-15v-60c0-8.276-6.724-15-15-15s-15 6.724-15 15v60c0 8.276 6.724 15 15 15z"></path><path d="m106 90h-15v30h15c8.276 0 15-6.724 15-15s-6.724-15-15-15z"></path><path d="m211 90c-8.276 0-15 6.724-15 15v60c0 8.276 6.724 15 15 15s15-6.724 15-15v-60c0-8.276-6.724-15-15-15z"></path><path d="m106 150h-15v30h15c8.276 0 15-6.724 15-15s-6.724-15-15-15z"></path><path d="m309.379 307.69 29.311-29.311-43.974-14.663z"></path><path d="m467 0h-422c-24.814 0-45 20.186-45 45v332c0 24.814 20.186 45 45 45h422c24.814 0 45-20.186 45-45v-332c0-24.814-20.186-45-45-45zm-196 105c0-24.814 20.186-45 45-45s45 20.186 45 45v60c0 24.814-20.186 45-45 45s-45-20.186-45-45zm-120 60c0 24.814-20.186 45-45 45h-45c0-11.515 0-157.508 0-150h45c24.814 0 45 20.186 45 45 0 11.567-4.508 22.02-11.704 30 7.196 7.98 11.704 18.433 11.704 30zm60 45c-24.814 0-45-20.186-45-45v-60c0-24.814 20.186-45 45-45s45 20.186 45 45v60c0 24.814-20.186 45-45 45zm166.069 157.28-42.429-42.429-38.386 38.386-48.97-146.953 146.953 48.97-38.386 38.386 42.429 42.429zm94.058-165.571-26.836 13.418-32.563-65.127h-5.728v60h-30c0-11.515 0-157.508 0-150h30v60h5.728l32.563-65.127 26.836 13.418-33.355 66.709z"></path><path d="m303.763 452h-95.526c-6.213 17.422-22.707 30-42.237 30h-45v30c5.034 0 281.27 0 270 0v-30h-45c-19.53 0-36.024-12.578-42.237-30z"></path></g></svg>