<?xml version="1.0" encoding="utf-8"?>
<!-- Generator: Adobe Illustrator 27.5.0, SVG Export Plug-In . SVG Version: 6.00 Build 0)  -->
<svg version="1.1" xmlns="http://www.w3.org/2000/svg" xmlns:xlink="http://www.w3.org/1999/xlink" x="0px" y="0px"
	 viewBox="0 0 500 500" style="enable-background:new 0 0 500 500;" xml:space="preserve">
<g id="BACKGROUND">
	<rect x="0.004" y="0.001" style="fill:#a5daff;" width="500" height="500"/>
</g>
<g id="OBJECTS">
	<g>
		<g>
			<g>
				<rect x="0.004" y="172.081" style="fill:#E6F4FF;" width="500" height="1"/>
			</g>
			<g>
				<rect x="412.504" y="0.001" style="fill:#E6F4FF;" width="1" height="500"/>
			</g>
		</g>
		<g>
			<rect x="167.94" y="115.913" style="fill:none;stroke:#E6F4FF;stroke-miterlimit:10;" width="105.597" height="152.099"/>
			<rect x="86.029" y="281.984" style="fill:none;stroke:#E6F4FF;stroke-miterlimit:10;" width="171.907" height="171.907"/>
		</g>
	</g>
	<g>
		<rect x="61.293" y="241.529" style="fill:#1F4666;" width="214.364" height="125.046"/>
		<text transform="matrix(1 0 0 1 76.6971 284.2253)" style="fill:#FFFFFF; font-family:'Montserrat-Bold'; font-size:38.9662px;">CMS</text>
		<g>
			<path style="fill:#BFDBF2;" d="M110.864,302.883H79.585c-1.223,0-2.214-0.991-2.214-2.214v0c0-1.223,0.991-2.214,2.214-2.214
				h31.279c1.223,0,2.214,0.991,2.214,2.214v0C113.078,301.892,112.087,302.883,110.864,302.883z"/>
			<path style="fill:#295D87;" d="M225.41,302.883H122.326c-1.223,0-2.214-0.991-2.214-2.214v0c0-1.223,0.991-2.214,2.214-2.214
				H225.41c1.223,0,2.214,0.991,2.214,2.214v0C227.624,301.892,226.632,302.883,225.41,302.883z"/>
			<path style="fill:#BFDBF2;" d="M110.864,314.509H79.585c-1.223,0-2.214-0.991-2.214-2.214l0,0c0-1.223,0.991-2.214,2.214-2.214
				h31.279c1.223,0,2.214,0.991,2.214,2.214l0,0C113.078,313.517,112.087,314.509,110.864,314.509z"/>
			<path style="fill:#295D87;" d="M225.41,314.509H122.326c-1.223,0-2.214-0.991-2.214-2.214l0,0c0-1.223,0.991-2.214,2.214-2.214
				H225.41c1.223,0,2.214,0.991,2.214,2.214l0,0C227.624,313.517,226.632,314.509,225.41,314.509z"/>
			<path style="fill:#295D87;" d="M110.864,326.134H79.585c-1.223,0-2.214-0.991-2.214-2.214l0,0c0-1.223,0.991-2.214,2.214-2.214
				h31.279c1.223,0,2.214,0.991,2.214,2.214l0,0C113.078,325.143,112.087,326.134,110.864,326.134z"/>
			<path style="fill:#295D87;" d="M225.41,326.134H122.326c-1.223,0-2.214-0.991-2.214-2.214l0,0c0-1.223,0.991-2.214,2.214-2.214
				H225.41c1.223,0,2.214,0.991,2.214,2.214l0,0C227.624,325.143,226.632,326.134,225.41,326.134z"/>
			<path style="fill:#295D87;" d="M110.864,337.76H79.585c-1.223,0-2.214-0.991-2.214-2.214l0,0c0-1.223,0.991-2.214,2.214-2.214
				h31.279c1.223,0,2.214,0.991,2.214,2.214l0,0C113.078,336.768,112.087,337.76,110.864,337.76z"/>
			<path style="fill:#295D87;" d="M225.41,337.76H122.326c-1.223,0-2.214-0.991-2.214-2.214l0,0c0-1.223,0.991-2.214,2.214-2.214
				H225.41c1.223,0,2.214,0.991,2.214,2.214l0,0C227.624,336.768,226.632,337.76,225.41,337.76z"/>
			<path style="fill:#BFDBF2;" d="M110.864,349.385H79.585c-1.223,0-2.214-0.991-2.214-2.214l0,0c0-1.223,0.991-2.214,2.214-2.214
				h31.279c1.223,0,2.214,0.991,2.214,2.214l0,0C113.078,348.394,112.087,349.385,110.864,349.385z"/>
		</g>
	</g>
	<g>
		<polygon style="fill:#FFFFFF;" points="209.472,110.412 209.472,194.406 132.738,194.406 132.738,95.535 194.594,95.535 		"/>
		<rect x="142.087" y="148.163" style="fill:#E6F4FF;" width="56.896" height="3.286"/>
		<rect x="142.087" y="157.611" style="fill:#E6F4FF;" width="56.896" height="3.286"/>
		<rect x="142.087" y="167.06" style="fill:#E6F4FF;" width="56.896" height="3.286"/>
		<rect x="142.087" y="176.508" style="fill:#E6F4FF;" width="56.896" height="3.286"/>
		<rect x="143.041" y="106.56" style="fill:#BFDBF2;" width="55.642" height="31.794"/>
		<polygon style="fill:#E6F4FF;" points="209.472,110.412 209.472,110.762 194.559,110.762 194.559,95.5 194.594,95.535 		"/>
	</g>
	<g>
		<path style="fill:#295D87;" d="M139.659,206.113c1.914,0,3.506-1.486,3.622-3.396c0.023-0.37,0.034-0.742,0.034-1.117
			c0-0.377-0.012-0.75-0.034-1.121c-0.116-1.91-1.709-3.397-3.623-3.397h-0.045c-0.44-1.683-1.118-3.271-1.992-4.728l0,0
			c1.291-1.292,1.351-3.359,0.152-4.737c-0.277-0.318-0.566-0.628-0.868-0.93c-0.303-0.304-0.615-0.594-0.933-0.871
			c-1.378-1.199-3.445-1.139-4.737,0.152l-0.023,0.023c-1.456-0.859-3.04-1.523-4.717-1.952c-0.05-0.013-0.102-0.022-0.153-0.034
			l0,0c0-1.679-1.264-3.12-2.937-3.264c-0.52-0.045-1.045-0.068-1.576-0.068c-0.533,0-1.06,0.023-1.58,0.068
			c-1.673,0.144-2.938,1.585-2.938,3.264v0.077c-1.75,0.464-3.397,1.183-4.9,2.114l0,0c-1.158-1.158-3.02-1.276-4.277-0.226
			c-0.419,0.349-0.825,0.721-1.218,1.113c-0.394,0.394-0.766,0.802-1.116,1.221c-1.05,1.257-0.932,3.12,0.226,4.278l0.116,0.116
			c-0.87,1.526-1.526,3.189-1.926,4.949l0,0c-1.668,0-3.098,1.256-3.243,2.919c-0.046,0.526-0.069,1.057-0.069,1.595
			c0,0.539,0.023,1.072,0.069,1.599c0.145,1.662,1.575,2.919,3.243,2.919h0.244c0.482,1.693,1.203,3.286,2.125,4.74l0,0
			c-1.285,1.285-1.343,3.341-0.152,4.712c0.28,0.322,0.573,0.637,0.879,0.943c0.307,0.307,0.623,0.601,0.946,0.882
			c1.372,1.192,3.428,1.134,4.713-0.151l0.181-0.181c1.463,0.814,3.05,1.431,4.725,1.818l0,0c0,1.908,1.482,3.494,3.386,3.611
			c0.373,0.023,0.749,0.035,1.128,0.035c0.38,0,0.758-0.012,1.132-0.035c1.904-0.117,3.386-1.703,3.386-3.611v-0.209
			c1.627-0.457,3.163-1.131,4.572-1.995l0,0c1.379,1.379,3.603,1.461,5.059,0.163c0.26-0.232,0.515-0.473,0.764-0.722
			c0.251-0.251,0.492-0.507,0.725-0.768c1.298-1.456,1.217-3.68-0.162-5.059l-0.088-0.089
			C138.606,209.323,139.246,207.764,139.659,206.113L139.659,206.113z M123.197,213.523c-7.514,0.744-13.781-5.509-13.049-13.027
			c0.542-5.568,5.038-10.078,10.605-10.636c7.529-0.756,13.81,5.521,13.062,13.049C133.261,208.472,128.76,212.972,123.197,213.523z
			"/>
		<path style="fill:#295D87;" d="M108.119,174.693c1.056,0,1.935-0.82,1.999-1.875c0.012-0.204,0.019-0.409,0.019-0.616
			c0-0.208-0.006-0.414-0.019-0.619c-0.064-1.054-0.943-1.875-1.999-1.875h-0.025c-0.243-0.929-0.617-1.805-1.099-2.61l0,0
			c0.713-0.713,0.746-1.854,0.084-2.614c-0.153-0.175-0.312-0.347-0.479-0.513c-0.168-0.168-0.339-0.328-0.515-0.481
			c-0.76-0.662-1.902-0.629-2.614,0.084l-0.013,0.013c-0.804-0.474-1.678-0.841-2.604-1.077c-0.028-0.007-0.057-0.012-0.085-0.019
			l0,0c0-0.927-0.698-1.722-1.621-1.801c-0.287-0.025-0.577-0.037-0.87-0.037c-0.294,0-0.585,0.013-0.872,0.037
			c-0.924,0.08-1.621,0.875-1.621,1.802v0.042c-0.966,0.256-1.875,0.653-2.705,1.167l0,0c-0.639-0.639-1.667-0.704-2.361-0.125
			c-0.231,0.193-0.456,0.398-0.672,0.615c-0.218,0.218-0.423,0.443-0.616,0.674c-0.579,0.694-0.514,1.722,0.125,2.361l0.064,0.064
			c-0.48,0.842-0.842,1.76-1.063,2.732l0,0c-0.921,0-1.71,0.693-1.79,1.611c-0.025,0.29-0.038,0.584-0.038,0.88
			c0,0.298,0.013,0.592,0.038,0.882c0.08,0.918,0.869,1.611,1.79,1.611h0.135c0.266,0.935,0.664,1.814,1.173,2.616l0,0
			c-0.709,0.709-0.741,1.844-0.084,2.601c0.155,0.178,0.316,0.351,0.485,0.52c0.17,0.17,0.344,0.332,0.522,0.487
			c0.757,0.658,1.892,0.626,2.601-0.084l0.1-0.1c0.808,0.449,1.684,0.79,2.608,1.003l0,0c0,1.053,0.818,1.929,1.869,1.993
			c0.206,0.013,0.413,0.019,0.622,0.019c0.21,0,0.418-0.006,0.625-0.019c1.051-0.065,1.869-0.94,1.869-1.993v-0.115
			c0.898-0.252,1.746-0.624,2.523-1.101l0,0c0.761,0.761,1.989,0.806,2.792,0.09c0.144-0.128,0.284-0.261,0.422-0.398
			c0.138-0.138,0.272-0.28,0.4-0.424c0.717-0.804,0.672-2.031-0.09-2.792l-0.049-0.049
			C107.538,176.465,107.892,175.604,108.119,174.693L108.119,174.693z M99.033,178.783c-4.147,0.411-7.606-3.041-7.202-7.19
			c0.299-3.073,2.781-5.562,5.853-5.871c4.156-0.417,7.623,3.048,7.209,7.202C104.588,175.995,102.104,178.479,99.033,178.783z"/>
	</g>
	<g>
		<path style="fill:#295D87;" d="M375.009,364.255c-10.64,0-19.254,8.625-19.254,19.254c0,10.64,8.613,19.254,19.254,19.254
			c10.629,0,19.254-8.613,19.254-19.254C394.263,372.88,385.638,364.255,375.009,364.255z M388.482,385.121
			c-0.633,6.414-5.815,11.596-12.229,12.229c-8.648,0.852-15.868-6.345-15.028-15.005c0.633-6.414,5.804-11.607,12.218-12.241
			C382.114,369.23,389.346,376.461,388.482,385.121z"/>
		<g>
			<path style="fill:#295D87;" d="M345.714,415.917l-2.217-2.217c-0.737-0.737-0.737-1.931,0-2.668l17.122-17.122l4.885,4.885
				l-17.122,17.122C347.646,416.654,346.451,416.654,345.714,415.917z"/>
		</g>
	</g>
	<g>
		<g>
			<rect x="242.541" y="80.47" style="fill:#FFFFFF;" width="64.633" height="42.533"/>
			<g>
				
					<text transform="matrix(1 0 0 1 251.7385 113.0098)" style="fill:#1F4666; font-family:'Montserrat-Bold'; font-size:28.9982px;">&lt;/&gt;</text>
			</g>
		</g>
		<path style="fill:#1F4666;" d="M304.304,72.425h-58.982c-1.417,0-2.566,1.149-2.566,2.567v5.191h64.115v-5.191
			C306.87,73.574,305.721,72.425,304.304,72.425z"/>
	</g>
	<g>
		
			<ellipse transform="matrix(0.244 -0.9698 0.9698 0.244 -333.3555 393.5849)" style="fill:#FFFFFF;" cx="85.769" cy="410.608" rx="20.443" ry="20.443"/>
		<polygon style="fill:#295D87;" points="94.804,410.275 87.719,414.365 80.634,418.456 80.634,410.275 80.634,402.094 
			87.719,406.184 		"/>
	</g>
	<g>
		<path style="fill:none;stroke:#E6F4FF;stroke-miterlimit:10;" d="M91.821,82.901c0,1.289-1.045,2.334-2.334,2.334
			c-1.289,0-2.334-1.045-2.334-2.334c0-1.289,1.045-2.334,2.334-2.334C90.776,80.567,91.821,81.612,91.821,82.901z"/>
		<path style="fill:none;stroke:#E6F4FF;stroke-miterlimit:10;" d="M374.587,431.271c0,1.289-1.045,2.334-2.334,2.334
			c-1.289,0-2.334-1.045-2.334-2.334c0-1.289,1.045-2.334,2.334-2.334C373.543,428.937,374.587,429.982,374.587,431.271z"/>
		<g>
			<line style="fill:none;stroke:#E6F4FF;stroke-miterlimit:10;" x1="71.879" y1="97.964" x2="71.879" y2="106.45"/>
			<line style="fill:none;stroke:#E6F4FF;stroke-miterlimit:10;" x1="76.122" y1="102.207" x2="67.636" y2="102.207"/>
		</g>
		<g>
			<line style="fill:none;stroke:#E6F4FF;stroke-miterlimit:10;" x1="441.887" y1="360.079" x2="441.887" y2="368.565"/>
			<line style="fill:none;stroke:#E6F4FF;stroke-miterlimit:10;" x1="446.13" y1="364.322" x2="437.644" y2="364.322"/>
		</g>
	</g>
	<g>
		<g>
			
				<ellipse transform="matrix(0.7071 -0.7071 0.7071 0.7071 52.4676 320.4893)" style="fill:#FFFFFF;" cx="413.099" cy="96.911" rx="20.443" ry="20.443"/>
		</g>
		<circle style="fill:#295D87;" cx="413.551" cy="90.267" r="4.122"/>
		<path style="fill:#295D87;" d="M423.561,107.011h-20.02c0.04-5.49,4.51-9.93,10.01-9.93S423.521,101.521,423.561,107.011z"/>
	</g>
	<g>
		<g>
			<path style="fill:#FFFFFF;" d="M433.081,144.429v196.35c0,2.21-1.78,3.99-3.99,3.99h-183.32c-2.21,0-4-1.78-4-3.99v-196.35
				c0-2.2,1.79-3.99,4-3.99h183.32C431.301,140.439,433.081,142.229,433.081,144.429z"/>
			<path style="fill:#1F4666;" d="M433.081,144.429v12.87h-191.31v-12.87c0-2.2,1.79-3.99,4-3.99h183.32
				C431.301,140.439,433.081,142.229,433.081,144.429z"/>
			<circle style="fill:#FFFFFF;" cx="423.309" cy="147.964" r="2.905"/>
			<circle style="fill:#FFFFFF;" cx="413.306" cy="147.964" r="2.904"/>
			<circle style="fill:#FFFFFF;" cx="403.304" cy="147.964" r="2.905"/>
			<rect x="241.873" y="157.388" style="fill:#E6F4FF;" width="190.958" height="75.231"/>
			<rect x="263.353" y="272.15" style="fill:#E6F4FF;" width="44.372" height="44.371"/>
			<rect x="316.374" y="272.15" style="fill:#E6F4FF;" width="44.371" height="44.371"/>
			<rect x="369.396" y="272.15" style="fill:#E6F4FF;" width="44.371" height="44.371"/>
			<path style="fill:#BFDBF2;" d="M376.139,255.073h-74.44c-1.828,0-3.31-1.482-3.31-3.31l0,0c0-1.828,1.482-3.31,3.31-3.31h74.44
				c1.828,0,3.31,1.482,3.31,3.31l0,0C379.449,253.591,377.967,255.073,376.139,255.073z"/>
		</g>
		<circle style="fill:#BFDBF2;" cx="394.085" cy="186.26" r="12.412"/>
		<polygon style="fill:#FFFFFF;" points="339.918,206.19 354.997,219.366 370.076,232.542 339.918,232.542 309.761,232.542 
			324.84,219.366 		"/>
		<polygon style="fill:#BFDBF2;" points="302.125,198.614 321.539,215.578 340.952,232.542 302.125,232.542 263.299,232.542 
			282.712,215.578 		"/>
	</g>
	<g>
		<path style="fill:#E6F4FF;" d="M332.254,389.483h-161.77c3.48-10.06,13.04-17.28,24.29-17.28c3,0,5.87,0.51,8.54,1.45
			c1.74-24.13,21.86-43.18,46.44-43.18c18.68,0,34.78,11,42.2,26.86c2.2-0.45,4.48-0.69,6.81-0.69
			C317.044,356.643,331.914,371.283,332.254,389.483z"/>
		<rect x="278.656" y="367.073" style="fill:#1F4666;" width="8.61" height="46.225"/>
		<polygon style="fill:#1F4666;" points="282.944,426.636 287.034,419.551 291.125,412.466 282.944,412.466 274.763,412.466 
			278.853,419.551 		"/>
		<rect x="254.057" y="379.655" style="fill:#295D87;" width="8.61" height="46.225"/>
		<polygon style="fill:#295D87;" points="258.345,366.316 262.435,373.401 266.526,380.486 258.345,380.486 250.164,380.486 
			254.254,373.401 		"/>
	</g>
</g>
</svg>
